<?xml version="1.0" encoding="UTF-8" standalone="no"?>
<!DOCTYPE svg PUBLIC "-//W3C//DTD SVG 1.1//EN"
 "http://www.w3.org/Graphics/SVG/1.1/DTD/svg11.dtd">
<!-- Generated by graphviz version 2.44.1 (20200629.0846)
 -->
<!-- Pages: 1 -->
<svg width="350pt" height="260pt"
 viewBox="0.00 0.00 350.00 260.00" xmlns="http://www.w3.org/2000/svg" xmlns:xlink="http://www.w3.org/1999/xlink">
<g id="graph0" class="graph" transform="scale(1 1) rotate(0) translate(4 256)">
<polygon fill="white" stroke="transparent" points="-4,4 -4,-256 346,-256 346,4 -4,4"/>
<!-- 0 -->
<g id="node1" class="node">
<title>0</title>
<polygon fill="red" stroke="red" points="234,-252 180,-252 180,-216 234,-216 234,-252"/>
<text text-anchor="middle" x="207" y="-227.8" font-family="Times,serif" font-size="24.00" fill="#000000">3,1,4</text>
</g>
<!-- 1 -->
<g id="node2" class="node">
<title>1</title>
<polygon fill="red" stroke="red" points="198,-180 144,-180 144,-144 198,-144 198,-180"/>
<text text-anchor="middle" x="171" y="-155.8" font-family="Times,serif" font-size="24.00" fill="#000000">2,3,7</text>
</g>
<!-- 0&#45;&gt;1 -->
<g id="edge1" class="edge">
<title>0&#45;&gt;1</title>
<path fill="none" stroke="Blue" stroke-dasharray="5,2" d="M198.1,-215.7C194,-207.73 189.05,-198.1 184.51,-189.26"/>
<polygon fill="Blue" stroke="Blue" points="187.48,-187.4 179.8,-180.1 181.26,-190.6 187.48,-187.4"/>
</g>
<!-- 2 -->
<g id="node3" class="node">
<title>2</title>
<polygon fill="red" stroke="red" points="270,-180 216,-180 216,-144 270,-144 270,-180"/>
<text text-anchor="middle" x="243" y="-155.8" font-family="Times,serif" font-size="24.00" fill="#000000">4,3,4</text>
</g>
<!-- 0&#45;&gt;2 -->
<g id="edge2" class="edge">
<title>0&#45;&gt;2</title>
<path fill="none" stroke="Blue" stroke-dasharray="5,2" d="M215.9,-215.7C220,-207.73 224.95,-198.1 229.49,-189.26"/>
<polygon fill="Blue" stroke="Blue" points="232.74,-190.6 234.2,-180.1 226.52,-187.4 232.74,-190.6"/>
</g>
<!-- 3 -->
<g id="node4" class="node">
<title>3</title>
<polygon fill="red" stroke="red" points="126,-108 72,-108 72,-72 126,-72 126,-108"/>
<text text-anchor="middle" x="99" y="-83.8" font-family="Times,serif" font-size="24.00" fill="#000000">2,1,3</text>
</g>
<!-- 1&#45;&gt;3 -->
<g id="edge3" class="edge">
<title>1&#45;&gt;3</title>
<path fill="none" stroke="Blue" stroke-dasharray="5,2" d="M153.2,-143.7C144.4,-135.14 133.62,-124.66 124,-115.3"/>
<polygon fill="Blue" stroke="Blue" points="126.2,-112.57 116.59,-108.1 121.32,-117.58 126.2,-112.57"/>
</g>
<!-- 4 -->
<g id="node5" class="node">
<title>4</title>
<polygon fill="red" stroke="red" points="198,-108 144,-108 144,-72 198,-72 198,-108"/>
<text text-anchor="middle" x="171" y="-83.8" font-family="Times,serif" font-size="24.00" fill="#000000">2,4,5</text>
</g>
<!-- 1&#45;&gt;4 -->
<g id="edge4" class="edge">
<title>1&#45;&gt;4</title>
<path fill="none" stroke="Blue" stroke-dasharray="5,2" d="M171,-143.7C171,-135.98 171,-126.71 171,-118.11"/>
<polygon fill="Blue" stroke="Blue" points="174.5,-118.1 171,-108.1 167.5,-118.1 174.5,-118.1"/>
</g>
<!-- 5 -->
<g id="node6" class="node">
<title>5</title>
<polygon fill="red" stroke="red" points="270,-108 216,-108 216,-72 270,-72 270,-108"/>
<text text-anchor="middle" x="243" y="-83.8" font-family="Times,serif" font-size="24.00" fill="#000000">6,1,4</text>
</g>
<!-- 2&#45;&gt;5 -->
<g id="edge5" class="edge">
<title>2&#45;&gt;5</title>
<path fill="none" stroke="Blue" stroke-dasharray="5,2" d="M243,-143.7C243,-135.98 243,-126.71 243,-118.11"/>
<polygon fill="Blue" stroke="Blue" points="246.5,-118.1 243,-108.1 239.5,-118.1 246.5,-118.1"/>
</g>
<!-- 6 -->
<g id="node7" class="node">
<title>6</title>
<polygon fill="red" stroke="red" points="342,-108 288,-108 288,-72 342,-72 342,-108"/>
<text text-anchor="middle" x="315" y="-83.8" font-family="Times,serif" font-size="24.00" fill="#000000">1,4,4</text>
</g>
<!-- 2&#45;&gt;6 -->
<g id="edge6" class="edge">
<title>2&#45;&gt;6</title>
<path fill="none" stroke="Blue" stroke-dasharray="5,2" d="M260.8,-143.7C269.6,-135.14 280.38,-124.66 290,-115.3"/>
<polygon fill="Blue" stroke="Blue" points="292.68,-117.58 297.41,-108.1 287.8,-112.57 292.68,-117.58"/>
</g>
<!-- 7 -->
<g id="node8" class="node">
<title>7</title>
<polygon fill="red" stroke="red" points="54,-36 0,-36 0,0 54,0 54,-36"/>
<text text-anchor="middle" x="27" y="-11.8" font-family="Times,serif" font-size="24.00" fill="#000000">0,5,7</text>
</g>
<!-- 3&#45;&gt;7 -->
<g id="edge7" class="edge">
<title>3&#45;&gt;7</title>
<path fill="none" stroke="Blue" stroke-dasharray="5,2" d="M81.2,-71.7C72.4,-63.14 61.62,-52.66 52,-43.3"/>
<polygon fill="Blue" stroke="Blue" points="54.2,-40.57 44.59,-36.1 49.32,-45.58 54.2,-40.57"/>
</g>
<!-- 8 -->
<g id="node9" class="node">
<title>8</title>
<polygon fill="red" stroke="red" points="126,-36 72,-36 72,0 126,0 126,-36"/>
<text text-anchor="middle" x="99" y="-11.8" font-family="Times,serif" font-size="24.00" fill="#000000">5,2,5</text>
</g>
<!-- 3&#45;&gt;8 -->
<g id="edge8" class="edge">
<title>3&#45;&gt;8</title>
<path fill="none" stroke="Blue" stroke-dasharray="5,2" d="M99,-71.7C99,-63.98 99,-54.71 99,-46.11"/>
<polygon fill="Blue" stroke="Blue" points="102.5,-46.1 99,-36.1 95.5,-46.1 102.5,-46.1"/>
</g>
<!-- 9 -->
<g id="node10" class="node">
<title>9</title>
<polygon fill="red" stroke="red" points="198,-36 144,-36 144,0 198,0 198,-36"/>
<text text-anchor="middle" x="171" y="-11.8" font-family="Times,serif" font-size="24.00" fill="#000000">4,0,6</text>
</g>
<!-- 4&#45;&gt;9 -->
<g id="edge9" class="edge">
<title>4&#45;&gt;9</title>
<path fill="none" stroke="Blue" stroke-dasharray="5,2" d="M171,-71.7C171,-63.98 171,-54.71 171,-46.11"/>
<polygon fill="Blue" stroke="Blue" points="174.5,-46.1 171,-36.1 167.5,-46.1 174.5,-46.1"/>
</g>
<!-- 10 -->
<g id="node11" class="node">
<title>10</title>
<polygon fill="red" stroke="red" points="270,-36 216,-36 216,0 270,0 270,-36"/>
<text text-anchor="middle" x="243" y="-11.8" font-family="Times,serif" font-size="24.00" fill="#000000">7,1,6</text>
</g>
<!-- 4&#45;&gt;10 -->
<g id="edge10" class="edge">
<title>4&#45;&gt;10</title>
<path fill="none" stroke="Blue" stroke-dasharray="5,2" d="M188.8,-71.7C197.6,-63.14 208.38,-52.66 218,-43.3"/>
<polygon fill="Blue" stroke="Blue" points="220.68,-45.58 225.41,-36.1 215.8,-40.57 220.68,-45.58"/>
</g>
</g>
</svg>
