<?xml version="1.0" encoding="UTF-8" standalone="no"?>
<!DOCTYPE svg PUBLIC "-//W3C//DTD SVG 1.1//EN"
 "http://www.w3.org/Graphics/SVG/1.1/DTD/svg11.dtd">
<!-- Generated by graphviz version 2.38.0 (20140413.2041)
 -->
<!-- Title: %3 Pages: 1 -->
<svg width="260pt" height="260pt"
 viewBox="0.00 0.00 260.00 260.00" xmlns="http://www.w3.org/2000/svg" xmlns:xlink="http://www.w3.org/1999/xlink">
<g id="graph0" class="graph" transform="scale(1 1) rotate(0) translate(4 256)">
<title>%3</title>
<polygon fill="white" stroke="none" points="-4,4 -4,-256 256,-256 256,4 -4,4"/>
<!-- 1 -->
<g id="node1" class="node"><title>1</title>
<ellipse fill="lightgrey" stroke="black" cx="153" cy="-234" rx="18" ry="18"/>
<text text-anchor="middle" x="153" y="-229.8" font-family="Times,serif" font-size="14.00" fill="#ffffff">3,1,4</text>
</g>
<!-- 2 -->
<g id="node2" class="node"><title>2</title>
<ellipse fill="lightgrey" stroke="black" cx="126" cy="-162" rx="18" ry="18"/>
<text text-anchor="middle" x="126" y="-157.8" font-family="Times,serif" font-size="14.00" fill="#ffffff">2,3,7</text>
</g>
<!-- 1&#45;&gt;2 -->
<g id="edge1" class="edge"><title>1&#45;&gt;2</title>
<path fill="none" stroke="black" d="M146.738,-216.765C143.5,-208.371 139.475,-197.934 135.834,-188.495"/>
<polygon fill="black" stroke="black" points="139.093,-187.218 132.228,-179.147 132.562,-189.737 139.093,-187.218"/>
</g>
<!-- 3 -->
<g id="node3" class="node"><title>3</title>
<ellipse fill="lightgrey" stroke="black" cx="180" cy="-162" rx="18" ry="18"/>
<text text-anchor="middle" x="180" y="-157.8" font-family="Times,serif" font-size="14.00" fill="#ffffff">4,3,4</text>
</g>
<!-- 1&#45;&gt;3 -->
<g id="edge2" class="edge"><title>1&#45;&gt;3</title>
<path fill="none" stroke="black" d="M159.262,-216.765C162.5,-208.371 166.525,-197.934 170.166,-188.495"/>
<polygon fill="black" stroke="black" points="173.438,-189.737 173.772,-179.147 166.907,-187.218 173.438,-189.737"/>
</g>
<!-- 4 -->
<g id="node4" class="node"><title>4</title>
<ellipse fill="lightgrey" stroke="black" cx="72" cy="-90" rx="18" ry="18"/>
<text text-anchor="middle" x="72" y="-85.8" font-family="Times,serif" font-size="14.00" fill="#ffffff">2,1,3</text>
</g>
<!-- 2&#45;&gt;4 -->
<g id="edge3" class="edge"><title>2&#45;&gt;4</title>
<path fill="none" stroke="black" d="M115.331,-147.17C107.787,-137.391 97.5188,-124.08 88.8713,-112.87"/>
<polygon fill="black" stroke="black" points="91.5258,-110.581 82.6465,-104.801 85.9833,-114.857 91.5258,-110.581"/>
</g>
<!-- 5 -->
<g id="node5" class="node"><title>5</title>
<ellipse fill="lightgrey" stroke="black" cx="126" cy="-90" rx="18" ry="18"/>
<text text-anchor="middle" x="126" y="-85.8" font-family="Times,serif" font-size="14.00" fill="#ffffff">2,4,5</text>
</g>
<!-- 2&#45;&gt;5 -->
<g id="edge4" class="edge"><title>2&#45;&gt;5</title>
<path fill="none" stroke="black" d="M126,-143.697C126,-135.983 126,-126.712 126,-118.112"/>
<polygon fill="black" stroke="black" points="129.5,-118.104 126,-108.104 122.5,-118.104 129.5,-118.104"/>
</g>
<!-- 6 -->
<g id="node6" class="node"><title>6</title>
<ellipse fill="lightgrey" stroke="black" cx="180" cy="-90" rx="18" ry="18"/>
<text text-anchor="middle" x="180" y="-85.8" font-family="Times,serif" font-size="14.00" fill="#ffffff">6,1,4</text>
</g>
<!-- 3&#45;&gt;6 -->
<g id="edge5" class="edge"><title>3&#45;&gt;6</title>
<path fill="none" stroke="black" d="M180,-143.697C180,-135.983 180,-126.712 180,-118.112"/>
<polygon fill="black" stroke="black" points="183.5,-118.104 180,-108.104 176.5,-118.104 183.5,-118.104"/>
</g>
<!-- 7 -->
<g id="node7" class="node"><title>7</title>
<ellipse fill="lightgrey" stroke="black" cx="234" cy="-90" rx="18" ry="18"/>
<text text-anchor="middle" x="234" y="-85.8" font-family="Times,serif" font-size="14.00" fill="#ffffff">1,4,4</text>
</g>
<!-- 3&#45;&gt;7 -->
<g id="edge6" class="edge"><title>3&#45;&gt;7</title>
<path fill="none" stroke="black" d="M190.669,-147.17C198.213,-137.391 208.481,-124.08 217.129,-112.87"/>
<polygon fill="black" stroke="black" points="220.017,-114.857 223.354,-104.801 214.474,-110.581 220.017,-114.857"/>
</g>
<!-- 8 -->
<g id="node8" class="node"><title>8</title>
<ellipse fill="lightgrey" stroke="black" cx="18" cy="-18" rx="18" ry="18"/>
<text text-anchor="middle" x="18" y="-13.8" font-family="Times,serif" font-size="14.00" fill="#ffffff">0,5,7</text>
</g>
<!-- 4&#45;&gt;8 -->
<g id="edge7" class="edge"><title>4&#45;&gt;8</title>
<path fill="none" stroke="black" d="M61.3313,-75.1703C53.7874,-65.391 43.5188,-52.0799 34.8713,-40.8702"/>
<polygon fill="black" stroke="black" points="37.5258,-38.581 28.6465,-32.801 31.9833,-42.8567 37.5258,-38.581"/>
</g>
<!-- 9 -->
<g id="node9" class="node"><title>9</title>
<ellipse fill="lightgrey" stroke="black" cx="72" cy="-18" rx="18" ry="18"/>
<text text-anchor="middle" x="72" y="-13.8" font-family="Times,serif" font-size="14.00" fill="#ffffff">5,2,5</text>
</g>
<!-- 4&#45;&gt;9 -->
<g id="edge8" class="edge"><title>4&#45;&gt;9</title>
<path fill="none" stroke="black" d="M72,-71.6966C72,-63.9827 72,-54.7125 72,-46.1124"/>
<polygon fill="black" stroke="black" points="75.5001,-46.1043 72,-36.1043 68.5001,-46.1044 75.5001,-46.1043"/>
</g>
<!-- 10 -->
<g id="node10" class="node"><title>10</title>
<ellipse fill="lightgrey" stroke="black" cx="126" cy="-18" rx="18" ry="18"/>
<text text-anchor="middle" x="126" y="-13.8" font-family="Times,serif" font-size="14.00" fill="#ffffff">4,0,6</text>
</g>
<!-- 5&#45;&gt;10 -->
<g id="edge9" class="edge"><title>5&#45;&gt;10</title>
<path fill="none" stroke="black" d="M126,-71.6966C126,-63.9827 126,-54.7125 126,-46.1124"/>
<polygon fill="black" stroke="black" points="129.5,-46.1043 126,-36.1043 122.5,-46.1044 129.5,-46.1043"/>
</g>
<!-- 11 -->
<g id="node11" class="node"><title>11</title>
<ellipse fill="lightgrey" stroke="black" cx="180" cy="-18" rx="18" ry="18"/>
<text text-anchor="middle" x="180" y="-13.8" font-family="Times,serif" font-size="14.00" fill="#ffffff">7,1,6</text>
</g>
<!-- 5&#45;&gt;11 -->
<g id="edge10" class="edge"><title>5&#45;&gt;11</title>
<path fill="none" stroke="black" d="M136.669,-75.1703C144.213,-65.391 154.481,-52.0799 163.129,-40.8702"/>
<polygon fill="black" stroke="black" points="166.017,-42.8567 169.354,-32.801 160.474,-38.581 166.017,-42.8567"/>
</g>
</g>
</svg>
