<?xml version="1.0" encoding="UTF-8" standalone="no"?>
<!DOCTYPE svg PUBLIC "-//W3C//DTD SVG 1.1//EN"
 "http://www.w3.org/Graphics/SVG/1.1/DTD/svg11.dtd">
<!-- Generated by graphviz version 2.38.0 (20140413.2041)
 -->
<!-- Title: %3 Pages: 1 -->
<svg width="350pt" height="260pt"
 viewBox="0.00 0.00 350.00 260.00" xmlns="http://www.w3.org/2000/svg" xmlns:xlink="http://www.w3.org/1999/xlink">
<g id="graph0" class="graph" transform="scale(1 1) rotate(0) translate(4 256)">
<title>%3</title>
<polygon fill="white" stroke="none" points="-4,4 -4,-256 346,-256 346,4 -4,4"/>
<!-- 0 -->
<g id="node1" class="node"><title>0</title>
<polygon fill="red" stroke="red" points="234,-252 180,-252 180,-216 234,-216 234,-252"/>
<text text-anchor="middle" x="207" y="-226.8" font-family="Times,serif" font-size="24.00" fill="#000000">3,1,4</text>
</g>
<!-- 1 -->
<g id="node2" class="node"><title>1</title>
<polygon fill="red" stroke="red" points="198,-180 144,-180 144,-144 198,-144 198,-180"/>
<text text-anchor="middle" x="171" y="-154.8" font-family="Times,serif" font-size="24.00" fill="#000000">2,3,7</text>
</g>
<!-- 0&#45;&gt;1 -->
<g id="edge1" class="edge"><title>0&#45;&gt;1</title>
<path fill="none" stroke="Blue" stroke-dasharray="5,2" d="M198.101,-215.697C194.003,-207.728 189.051,-198.1 184.507,-189.264"/>
<polygon fill="Blue" stroke="Blue" points="187.483,-187.396 179.797,-180.104 181.258,-190.598 187.483,-187.396"/>
</g>
<!-- 2 -->
<g id="node3" class="node"><title>2</title>
<polygon fill="red" stroke="red" points="270,-180 216,-180 216,-144 270,-144 270,-180"/>
<text text-anchor="middle" x="243" y="-154.8" font-family="Times,serif" font-size="24.00" fill="#000000">4,3,4</text>
</g>
<!-- 0&#45;&gt;2 -->
<g id="edge2" class="edge"><title>0&#45;&gt;2</title>
<path fill="none" stroke="Blue" stroke-dasharray="5,2" d="M215.899,-215.697C219.997,-207.728 224.949,-198.1 229.493,-189.264"/>
<polygon fill="Blue" stroke="Blue" points="232.742,-190.598 234.203,-180.104 226.517,-187.396 232.742,-190.598"/>
</g>
<!-- 3 -->
<g id="node4" class="node"><title>3</title>
<polygon fill="red" stroke="red" points="126,-108 72,-108 72,-72 126,-72 126,-108"/>
<text text-anchor="middle" x="99" y="-82.8" font-family="Times,serif" font-size="24.00" fill="#000000">2,1,3</text>
</g>
<!-- 1&#45;&gt;3 -->
<g id="edge3" class="edge"><title>1&#45;&gt;3</title>
<path fill="none" stroke="Blue" stroke-dasharray="5,2" d="M153.202,-143.697C144.396,-135.135 133.618,-124.656 123.999,-115.304"/>
<polygon fill="Blue" stroke="Blue" points="126.203,-112.566 116.593,-108.104 121.323,-117.585 126.203,-112.566"/>
</g>
<!-- 4 -->
<g id="node5" class="node"><title>4</title>
<polygon fill="red" stroke="red" points="198,-108 144,-108 144,-72 198,-72 198,-108"/>
<text text-anchor="middle" x="171" y="-82.8" font-family="Times,serif" font-size="24.00" fill="#000000">2,4,5</text>
</g>
<!-- 1&#45;&gt;4 -->
<g id="edge4" class="edge"><title>1&#45;&gt;4</title>
<path fill="none" stroke="Blue" stroke-dasharray="5,2" d="M171,-143.697C171,-135.983 171,-126.712 171,-118.112"/>
<polygon fill="Blue" stroke="Blue" points="174.5,-118.104 171,-108.104 167.5,-118.104 174.5,-118.104"/>
</g>
<!-- 5 -->
<g id="node6" class="node"><title>5</title>
<polygon fill="red" stroke="red" points="270,-108 216,-108 216,-72 270,-72 270,-108"/>
<text text-anchor="middle" x="243" y="-82.8" font-family="Times,serif" font-size="24.00" fill="#000000">6,1,4</text>
</g>
<!-- 2&#45;&gt;5 -->
<g id="edge5" class="edge"><title>2&#45;&gt;5</title>
<path fill="none" stroke="Blue" stroke-dasharray="5,2" d="M243,-143.697C243,-135.983 243,-126.712 243,-118.112"/>
<polygon fill="Blue" stroke="Blue" points="246.5,-118.104 243,-108.104 239.5,-118.104 246.5,-118.104"/>
</g>
<!-- 6 -->
<g id="node7" class="node"><title>6</title>
<polygon fill="red" stroke="red" points="342,-108 288,-108 288,-72 342,-72 342,-108"/>
<text text-anchor="middle" x="315" y="-82.8" font-family="Times,serif" font-size="24.00" fill="#000000">1,4,4</text>
</g>
<!-- 2&#45;&gt;6 -->
<g id="edge6" class="edge"><title>2&#45;&gt;6</title>
<path fill="none" stroke="Blue" stroke-dasharray="5,2" d="M260.798,-143.697C269.604,-135.135 280.382,-124.656 290.001,-115.304"/>
<polygon fill="Blue" stroke="Blue" points="292.677,-117.585 297.407,-108.104 287.797,-112.566 292.677,-117.585"/>
</g>
<!-- 7 -->
<g id="node8" class="node"><title>7</title>
<polygon fill="red" stroke="red" points="54,-36 0,-36 0,-0 54,-0 54,-36"/>
<text text-anchor="middle" x="27" y="-10.8" font-family="Times,serif" font-size="24.00" fill="#000000">0,5,7</text>
</g>
<!-- 3&#45;&gt;7 -->
<g id="edge7" class="edge"><title>3&#45;&gt;7</title>
<path fill="none" stroke="Blue" stroke-dasharray="5,2" d="M81.2022,-71.6966C72.396,-63.135 61.6179,-52.6562 51.9989,-43.3045"/>
<polygon fill="Blue" stroke="Blue" points="54.2028,-40.5657 44.593,-36.1043 49.3232,-45.5846 54.2028,-40.5657"/>
</g>
<!-- 8 -->
<g id="node9" class="node"><title>8</title>
<polygon fill="red" stroke="red" points="126,-36 72,-36 72,-0 126,-0 126,-36"/>
<text text-anchor="middle" x="99" y="-10.8" font-family="Times,serif" font-size="24.00" fill="#000000">5,2,5</text>
</g>
<!-- 3&#45;&gt;8 -->
<g id="edge8" class="edge"><title>3&#45;&gt;8</title>
<path fill="none" stroke="Blue" stroke-dasharray="5,2" d="M99,-71.6966C99,-63.9827 99,-54.7125 99,-46.1124"/>
<polygon fill="Blue" stroke="Blue" points="102.5,-46.1043 99,-36.1043 95.5001,-46.1044 102.5,-46.1043"/>
</g>
<!-- 9 -->
<g id="node10" class="node"><title>9</title>
<polygon fill="red" stroke="red" points="198,-36 144,-36 144,-0 198,-0 198,-36"/>
<text text-anchor="middle" x="171" y="-10.8" font-family="Times,serif" font-size="24.00" fill="#000000">4,0,6</text>
</g>
<!-- 4&#45;&gt;9 -->
<g id="edge9" class="edge"><title>4&#45;&gt;9</title>
<path fill="none" stroke="Blue" stroke-dasharray="5,2" d="M171,-71.6966C171,-63.9827 171,-54.7125 171,-46.1124"/>
<polygon fill="Blue" stroke="Blue" points="174.5,-46.1043 171,-36.1043 167.5,-46.1044 174.5,-46.1043"/>
</g>
<!-- 10 -->
<g id="node11" class="node"><title>10</title>
<polygon fill="red" stroke="red" points="270,-36 216,-36 216,-0 270,-0 270,-36"/>
<text text-anchor="middle" x="243" y="-10.8" font-family="Times,serif" font-size="24.00" fill="#000000">7,1,6</text>
</g>
<!-- 4&#45;&gt;10 -->
<g id="edge10" class="edge"><title>4&#45;&gt;10</title>
<path fill="none" stroke="Blue" stroke-dasharray="5,2" d="M188.798,-71.6966C197.604,-63.135 208.382,-52.6562 218.001,-43.3045"/>
<polygon fill="Blue" stroke="Blue" points="220.677,-45.5846 225.407,-36.1043 215.797,-40.5657 220.677,-45.5846"/>
</g>
</g>
</svg>
